<?xml version="1.0" encoding="utf-8"?>
<!-- Generator: Adobe Illustrator 16.0.0, SVG Export Plug-In . SVG Version: 6.00 Build 0)  -->
<!DOCTYPE svg PUBLIC "-//W3C//DTD SVG 1.1//EN" "http://www.w3.org/Graphics/SVG/1.1/DTD/svg11.dtd">
<svg version="1.1" id="Layer_1" xmlns="http://www.w3.org/2000/svg" xmlns:xlink="http://www.w3.org/1999/xlink" x="0px" y="0px"
	 width="48px" height="48px" viewBox="0 0 48 48" enable-background="new 0 0 48 48" xml:space="preserve">
<path fill="#020202" d="M26.5,10.3c-1,0-1.857-0.358-2.575-1.075C23.208,8.508,22.85,7.65,22.85,6.65s0.358-1.858,1.075-2.575
	C24.643,3.358,25.5,3,26.5,3s1.857,0.358,2.575,1.075C29.791,4.792,30.15,5.65,30.15,6.65s-0.359,1.858-1.075,2.575
	C28.357,9.941,27.5,10.3,26.5,10.3z M14.1,46l6.05-31c0.167-0.8,0.55-1.417,1.15-1.85c0.6-0.433,1.233-0.65,1.9-0.65
	s1.292,0.15,1.875,0.45c0.583,0.3,1.058,0.733,1.425,1.3l1.95,3.2c0.634,1.066,1.509,2.017,2.625,2.85S33.5,21.783,35,22.25V18.5h2
	V46h-2V25.3c-1.7-0.366-3.3-1.017-4.8-1.95c-1.5-0.934-2.833-2.083-4-3.45l-1.45,7.25L29,31.2V46h-3V33.8l-5-4.75L17.3,46H14.1z
	 M14.95,25.85l2.5-12.7l-1.8-0.35c-0.967-0.167-1.85,0.009-2.65,0.525c-0.8,0.516-1.283,1.258-1.45,2.225l-1.5,7.85
	c-0.066,0.367,0.025,0.733,0.275,1.1s0.542,0.584,0.875,0.65L14.95,25.85z"/>
</svg>
